<svg width="187" height="40" viewBox="0 0 187 40" fill="none" xmlns="http://www.w3.org/2000/svg">
<path d="M46.3103 21.5004H17.9103C17.6725 20.8589 17.5375 20.184 17.5103 19.5004C17.5255 18.8478 17.6611 18.2037 17.9103 17.6004H46.3103C46.3882 16.5275 46.5217 15.4594 46.7103 14.4004H16.2103C14.9421 15.8381 14.2323 17.6834 14.2103 19.6004C14.1845 21.5262 14.9006 23.3882 16.2103 24.8004H46.7103C46.5103 23.6004 46.4103 22.5004 46.3103 21.5004Z" fill="black"/>
<path d="M51.2103 35.6996H8.91026C5.2261 31.1039 3.21843 25.3897 3.21843 19.4996C3.21843 13.6095 5.2261 7.8953 8.91026 3.29961H51.1103C51.8877 2.19047 52.7222 1.12237 53.6103 0.0996094H7.41026C2.6383 5.43483 0.00012207 12.3417 0.00012207 19.4996C0.00012207 26.6576 2.6383 33.5644 7.41026 38.8996H53.6103C52.7548 37.8757 51.9537 36.8076 51.2103 35.6996Z" fill="black"/>
<path d="M47.7103 28.6002H13.4103C11.4489 25.973 10.3958 22.7788 10.4103 19.5002C10.4102 16.2239 11.4618 13.0341 13.4103 10.4002H47.7103C48.0828 9.30983 48.5169 8.24145 49.0103 7.2002H11.9103C8.87444 10.5778 7.19495 14.9588 7.19495 19.5002C7.19495 24.0416 8.87444 28.4226 11.9103 31.8002H49.0103C48.5169 30.7589 48.0828 29.6906 47.7103 28.6002Z" fill="black"/>
<path d="M65.8103 15.0996C65.2675 14.4909 64.8546 13.7778 64.5967 13.0041C64.3388 12.2304 64.2413 11.4123 64.3103 10.5996V0.0996094H67.0103V10.4996C66.9667 11.0027 67.0239 11.5095 67.1784 11.9902C67.3329 12.471 67.5817 12.9161 67.9103 13.2996C68.7263 13.8857 69.7056 14.2009 70.7103 14.2009C71.7149 14.2009 72.6942 13.8857 73.5103 13.2996C73.8388 12.9161 74.0876 12.471 74.2421 11.9902C74.3967 11.5095 74.4538 11.0027 74.4103 10.4996V0.0996094H77.1103V10.6996C77.1734 11.5118 77.0732 12.3285 76.8156 13.1014C76.558 13.8743 76.1481 14.5877 75.6103 15.1996C74.6103 16.1996 73.0103 16.5996 70.8103 16.5996C68.6103 16.5996 66.8103 16.0996 65.8103 15.0996Z" fill="black"/>
<path d="M89.3103 5.59983C89.7319 6.07482 90.0551 6.62876 90.261 7.22956C90.467 7.83036 90.5517 8.46606 90.5103 9.09983V16.1998H87.9103V9.59983C87.9687 8.78804 87.7578 7.97964 87.3103 7.29983C87.0637 7.05175 86.7659 6.86056 86.4377 6.73965C86.1095 6.61873 85.7588 6.57101 85.4103 6.59983C85.0246 6.58676 84.6402 6.65078 84.2796 6.78815C83.919 6.92552 83.5895 7.13348 83.3103 7.39983C82.7868 8.04637 82.5358 8.87132 82.6103 9.69983V16.1998H80.0103V4.69983H82.6103V5.99983C83.0277 5.45232 83.5763 5.01875 84.2055 4.73912C84.8347 4.45949 85.5241 4.3428 86.2103 4.39983C86.7807 4.38412 87.3487 4.48213 87.8809 4.68816C88.4131 4.89418 88.899 5.2041 89.3103 5.59983Z" fill="black"/>
<path d="M95.5103 4.7002H92.9103V16.2002H95.5103V4.7002Z" fill="black"/>
<path d="M97.1103 4.7002H99.9103L103.01 13.3002L106.11 4.7002H108.91L104.51 16.2002H101.61L97.1103 4.7002Z" fill="black"/>
<path d="M118.41 12.9996C118.523 12.7465 118.59 12.4758 118.61 12.1996H121.21C121.127 13.3085 120.627 14.3446 119.81 15.0996C119.283 15.6041 118.625 15.9506 117.91 16.0996C117.133 16.346 116.325 16.4807 115.51 16.4996C114.328 16.5202 113.159 16.2452 112.11 15.6996C111.192 15.1655 110.459 14.3628 110.01 13.3996C109.582 12.4593 109.376 11.4325 109.41 10.3996C109.391 9.86428 109.424 9.32832 109.51 8.79961C109.597 8.32093 109.731 7.85199 109.91 7.39961C110.321 6.44348 111.02 5.63944 111.91 5.09961C112.931 4.57339 114.062 4.29883 115.21 4.29883C116.358 4.29883 117.49 4.57339 118.51 5.09961C119.397 5.5972 120.099 6.36918 120.51 7.29961C120.736 7.84706 120.904 8.4169 121.01 8.99961C121.099 9.69591 121.132 10.3981 121.11 11.0996H111.91C111.91 11.6577 112.048 12.2072 112.31 12.6996C112.533 13.2111 112.92 13.6335 113.41 13.8996C113.998 14.1952 114.653 14.3331 115.31 14.2996L116.71 14.0996L117.71 13.5996C118.11 13.4996 118.21 13.1996 118.41 12.9996ZM112.41 8.09961C112.206 8.4294 112.101 8.8116 112.11 9.19961H118.61C118.604 8.78178 118.502 8.37101 118.31 7.99961C118.053 7.51147 117.674 7.0981 117.21 6.79961C116.659 6.50302 116.036 6.36459 115.41 6.39961C114.802 6.37882 114.2 6.52659 113.671 6.82661C113.141 7.12662 112.705 7.56719 112.41 8.09961Z" fill="black"/>
<path d="M130.21 4.60026V6.90026H129.01C128.584 6.87173 128.157 6.9376 127.76 7.09317C127.362 7.24875 127.004 7.49019 126.71 7.80026C126.148 8.54685 125.865 9.46675 125.91 10.4003V16.3003H123.31V4.70026H125.91V6.00026C126.254 5.50422 126.72 5.10543 127.263 4.84261C127.806 4.57978 128.408 4.46185 129.01 4.50026L130.21 4.60026Z" fill="black"/>
<path d="M133.31 15.9999C132.561 15.6518 131.958 15.0495 131.61 14.2999C131.315 13.7119 131.177 13.0572 131.21 12.3999H133.71C133.719 12.7748 133.787 13.1459 133.91 13.4999C134.21 14.2999 135.01 14.5999 136.11 14.5999C137.21 14.5999 137.91 14.2999 138.21 13.6999C138.291 13.5106 138.325 13.305 138.31 13.0999C138.325 12.8948 138.291 12.6892 138.21 12.4999L137.71 11.8999L136.81 11.4999L135.31 11.1999C134.546 11.027 133.807 10.7582 133.11 10.3999C132.531 10.0935 132.073 9.60003 131.81 8.99992C131.637 8.5897 131.569 8.14312 131.61 7.69992C131.603 7.21659 131.706 6.73794 131.91 6.29992C132.248 5.66061 132.771 5.13791 133.41 4.79992C134.252 4.40339 135.182 4.23116 136.11 4.29992C137.033 4.30127 137.948 4.4707 138.81 4.79992C139.499 5.10289 140.064 5.63213 140.41 6.29992C140.624 6.84048 140.726 7.4188 140.71 7.99992H138.21C138.191 7.65879 138.124 7.32207 138.01 6.99992C137.857 6.69846 137.612 6.45339 137.31 6.29992C136.937 6.12179 136.521 6.05247 136.11 6.09992C135.11 6.09992 134.51 6.39992 134.31 6.89992C134.215 7.04809 134.18 7.22661 134.21 7.39992C134.18 7.57323 134.215 7.75175 134.31 7.89992C134.353 8.04156 134.43 8.17041 134.535 8.27507C134.64 8.37973 134.769 8.45696 134.91 8.49992L135.81 8.89992L137.21 9.19992C138.048 9.38771 138.856 9.69059 139.61 10.0999C140.213 10.4069 140.703 10.897 141.01 11.4999C141.183 11.9101 141.252 12.3567 141.21 12.7999C141.216 13.3154 141.114 13.8263 140.91 14.2999C140.557 15.0226 139.953 15.5915 139.21 15.8999C138.303 16.3204 137.31 16.5257 136.31 16.4999C135.288 16.515 134.272 16.3456 133.31 15.9999Z" fill="black"/>
<path d="M145.81 4.7002H143.21V16.2002H145.81V4.7002Z" fill="black"/>
<path d="M159.51 0.0996094V16.1996H157.01V14.7996C156.594 15.3353 156.041 15.7497 155.41 15.9996C154.716 16.294 153.964 16.4307 153.21 16.3996C152.188 16.4076 151.184 16.1306 150.31 15.5996C149.509 15.1008 148.881 14.3677 148.51 13.4996C148.299 13.0156 148.132 12.5136 148.01 11.9996C147.889 11.4408 147.822 10.8714 147.81 10.2996C147.786 9.20285 147.99 8.11305 148.41 7.09961C148.781 6.23153 149.409 5.49838 150.21 4.99961C151.084 4.46862 152.088 4.19159 153.11 4.19961C153.863 4.17799 154.613 4.31424 155.31 4.59961C155.922 4.88283 156.467 5.2917 156.91 5.79961V0.0996094H159.51ZM157.01 10.0996C157.056 9.1661 156.772 8.2462 156.21 7.49961C155.913 7.19495 155.554 6.95712 155.157 6.80194C154.761 6.64676 154.336 6.57779 153.91 6.59961C153.316 6.55509 152.722 6.69476 152.21 6.99961C151.72 7.26569 151.333 7.68809 151.11 8.19961C150.806 8.89123 150.669 9.64501 150.71 10.3996C150.669 11.1542 150.806 11.908 151.11 12.5996C151.339 13.107 151.725 13.5277 152.21 13.7996C152.731 14.0832 153.318 14.2214 153.91 14.1996C154.336 14.2214 154.761 14.1525 155.157 13.9973C155.554 13.8421 155.913 13.6043 156.21 13.2996C156.51 12.9416 156.736 12.527 156.873 12.0805C157.011 11.634 157.057 11.1644 157.01 10.6996V10.0996Z" fill="black"/>
<path d="M172.51 9.39988V16.1999H169.91V14.8999C169.43 15.4518 168.827 15.8839 168.15 16.1616C167.473 16.4394 166.74 16.5552 166.01 16.4999C165.119 16.5078 164.235 16.3378 163.41 15.9999C162.733 15.716 162.194 15.1773 161.91 14.4999C161.715 14.0238 161.613 13.5145 161.61 12.9999C161.591 12.4833 161.694 11.9695 161.91 11.4999C162.093 11.0726 162.367 10.6903 162.712 10.3795C163.057 10.0686 163.466 9.83671 163.91 9.69988C165.078 9.3514 166.292 9.1828 167.51 9.19988H169.91V8.19988C169.89 7.98724 169.822 7.782 169.71 7.59988C169.41 6.79988 168.61 6.49988 167.31 6.49988C166.762 6.48312 166.216 6.58547 165.71 6.79988C165.327 6.95531 165.01 7.2378 164.81 7.59988C164.698 7.85301 164.63 8.12367 164.61 8.39988H162.01C161.994 7.81876 162.096 7.24044 162.31 6.69988C163.01 5.19988 164.61 4.39988 167.21 4.39988C168.276 4.35387 169.338 4.55941 170.31 4.99988C171.089 5.35651 171.699 6.00198 172.01 6.79988C172.417 7.60253 172.591 8.50347 172.51 9.39988ZM169.91 11.1999H167.71L165.61 11.3999C165.374 11.4287 165.149 11.5173 164.957 11.6573C164.764 11.7973 164.611 11.984 164.51 12.1999C164.422 12.4219 164.387 12.6619 164.41 12.8999C164.387 13.1378 164.422 13.3778 164.51 13.5999C164.675 13.9293 164.962 14.1808 165.31 14.2999C165.756 14.4701 166.235 14.5385 166.71 14.4999C167.368 14.5431 168.026 14.4047 168.61 14.0999C169.101 13.8338 169.488 13.4114 169.71 12.8999C169.846 12.3435 169.913 11.7726 169.91 11.1999Z" fill="black"/>
<path d="M186.21 0.0996094V16.1996H183.71V14.7996C183.294 15.3353 182.741 15.7497 182.11 15.9996C181.416 16.294 180.664 16.4307 179.91 16.3996C178.888 16.4076 177.884 16.1306 177.01 15.5996C176.209 15.1008 175.581 14.3677 175.21 13.4996C174.999 13.0156 174.832 12.5136 174.71 11.9996C174.588 11.4408 174.522 10.8714 174.51 10.2996C174.486 9.20285 174.69 8.11305 175.11 7.09961C175.481 6.23153 176.109 5.49838 176.91 4.99961C177.784 4.46862 178.788 4.19159 179.81 4.19961C180.563 4.17799 181.313 4.31424 182.01 4.59961C182.622 4.88283 183.167 5.2917 183.61 5.79961V0.0996094H186.21ZM183.61 10.0996C183.656 9.1661 183.372 8.2462 182.81 7.49961C182.513 7.19495 182.154 6.95712 181.757 6.80194C181.361 6.64676 180.936 6.57779 180.51 6.59961C179.916 6.55509 179.322 6.69476 178.81 6.99961C178.32 7.26569 177.933 7.68809 177.71 8.19961C177.406 8.89123 177.269 9.64501 177.31 10.3996C177.269 11.1542 177.406 11.908 177.71 12.5996C177.939 13.107 178.325 13.5277 178.81 13.7996C179.331 14.0832 179.918 14.2214 180.51 14.1996C180.936 14.2214 181.361 14.1525 181.757 13.9973C182.154 13.8421 182.513 13.6043 182.81 13.2996C183.11 12.9416 183.336 12.527 183.473 12.0805C183.611 11.634 183.657 11.1644 183.61 10.6996V10.0996Z" fill="black"/>
<path d="M67.5103 38.0998C66.289 37.3974 65.3383 36.3059 64.8103 34.9998C64.2033 33.5806 63.9296 32.0412 64.0103 30.4998C63.988 28.93 64.2594 27.3699 64.8103 25.8998C65.3994 24.6322 66.3355 23.5574 67.5103 22.7998C68.8539 22.0505 70.3721 21.671 71.9103 21.6998C72.9308 21.7025 73.944 21.8714 74.9103 22.1998C75.7746 22.4829 76.5618 22.9621 77.2103 23.5998C77.8415 24.1346 78.3238 24.8236 78.6103 25.5998C78.9267 26.4354 79.1285 27.31 79.2103 28.1998H76.4103C76.3465 27.1259 75.9239 26.1047 75.2103 25.2998C74.3569 24.6578 73.3352 24.2782 72.2698 24.2072C71.2043 24.1361 70.1412 24.3768 69.2103 24.8998C68.4723 25.356 67.8819 26.0158 67.5103 26.7998C67.2843 27.3127 67.1166 27.8494 67.0103 28.3998C66.8846 29.0929 66.8177 29.7954 66.8103 30.4998C66.7886 31.2013 66.822 31.9035 66.9103 32.5998C67.0166 33.1501 67.1843 33.6868 67.4103 34.1998C67.7481 35.0057 68.3467 35.6748 69.1103 36.0998C69.9334 36.5655 70.8645 36.8069 71.8103 36.7998C72.4559 36.8062 73.098 36.7048 73.7103 36.4998C74.2501 36.3155 74.7566 36.0454 75.2103 35.6998C75.6106 35.3339 75.9256 34.8844 76.133 34.3833C76.3404 33.8822 76.435 33.3416 76.4103 32.7998H79.2103C79.1991 33.6892 79.0298 34.5696 78.7103 35.3998C78.4238 36.176 77.9415 36.8649 77.3103 37.3998C76.6244 38.0392 75.8045 38.5175 74.9103 38.7998C73.944 39.1282 72.9308 39.2971 71.9103 39.2998C70.3702 39.2477 68.8636 38.8367 67.5103 38.0998Z" fill="black"/>
<path d="M83.7103 38.2002C82.7963 37.6895 82.0891 36.8762 81.7103 35.9002C81.2898 34.9926 81.0845 34.0002 81.1103 33.0002C81.0961 31.969 81.3006 30.9466 81.7103 30.0002C82.1213 29.0441 82.8205 28.24 83.7103 27.7002C84.7307 27.174 85.8621 26.8994 87.0103 26.8994C88.1584 26.8994 89.2898 27.174 90.3103 27.7002C91.2242 28.2109 91.9314 29.0242 92.3103 30.0002C92.7063 30.9508 92.9103 31.9704 92.9103 33.0002C92.9103 34.03 92.7063 35.0496 92.3103 36.0002C91.8992 36.9563 91.2001 37.7604 90.3103 38.3002C89.2972 38.8458 88.1607 39.1213 87.0103 39.1002C85.8462 39.1267 84.6996 38.814 83.7103 38.2002ZM88.8103 36.4002C89.2742 36.1017 89.6532 35.6883 89.9103 35.2002C90.1758 34.4972 90.3114 33.7517 90.3103 33.0002C90.3733 32.2444 90.2353 31.4854 89.9103 30.8002C89.6877 30.2887 89.3005 29.8663 88.8103 29.6002C88.2477 29.3334 87.6329 29.1949 87.0103 29.1949C86.3876 29.1949 85.7728 29.3334 85.2103 29.6002C84.7463 29.8987 84.3673 30.3121 84.1103 30.8002C83.798 31.4895 83.6606 32.2451 83.7103 33.0002C83.6685 33.7548 83.8056 34.5086 84.1103 35.2002C84.3328 35.7117 84.72 36.1341 85.2103 36.4002C85.762 36.6968 86.3849 36.8352 87.0103 36.8002C87.3218 36.8555 87.6413 36.8486 87.9502 36.78C88.2591 36.7113 88.5514 36.5822 88.8103 36.4002Z" fill="black"/>
<path d="M104.51 28.2004C104.932 28.6754 105.255 29.2294 105.461 29.8301C105.667 30.4309 105.752 31.0666 105.71 31.7004V38.8004H103.11V32.2004C103.169 31.3886 102.958 30.5802 102.51 29.9004C102.264 29.6523 101.966 29.4611 101.638 29.3402C101.31 29.2193 100.959 29.1716 100.61 29.2004C100.225 29.1873 99.8402 29.2514 99.4796 29.3887C99.119 29.5261 98.7895 29.7341 98.5103 30.0004C97.9869 30.647 97.7358 31.4719 97.8103 32.3004V38.8004H95.2103V27.3004H97.8103V28.6004C98.2277 28.0529 98.7763 27.6193 99.4055 27.3397C100.035 27.0601 100.724 26.9434 101.41 27.0004C101.983 26.9665 102.556 27.0561 103.091 27.2631C103.626 27.4702 104.11 27.7898 104.51 28.2004Z" fill="black"/>
<path d="M109.91 38.0996C109.574 37.701 109.321 37.2389 109.166 36.7408C109.012 36.2427 108.959 35.7186 109.01 35.1996V29.3996H107.21V27.2996H109.01V22.5996H111.61V27.2996H114.91V29.3996H111.61V34.7996C111.547 35.3323 111.69 35.8691 112.01 36.2996C112.195 36.4778 112.415 36.6147 112.656 36.7009C112.898 36.7871 113.155 36.8208 113.41 36.7996L114.81 36.5996V38.7996C114.089 38.9652 113.349 39.0325 112.61 38.9996C112.123 39.0352 111.634 38.9741 111.17 38.8196C110.707 38.6651 110.279 38.4204 109.91 38.0996Z" fill="black"/>
<path d="M119.91 27.2998H117.31V38.7998H119.91V27.2998Z" fill="black"/>
<path d="M132.11 28.2004C132.532 28.6754 132.855 29.2294 133.061 29.8301C133.267 30.4309 133.352 31.0666 133.31 31.7004V38.8004H130.71V32.2004C130.769 31.3886 130.558 30.5802 130.11 29.9004C129.864 29.6523 129.566 29.4611 129.238 29.3402C128.91 29.2193 128.559 29.1716 128.21 29.2004C127.825 29.1873 127.44 29.2514 127.08 29.3887C126.719 29.5261 126.389 29.7341 126.11 30.0004C125.587 30.647 125.336 31.4719 125.41 32.3004V38.8004H122.81V27.3004H125.41V28.6004C125.828 28.0529 126.376 27.6193 127.006 27.3397C127.635 27.0601 128.324 26.9434 129.01 27.0004C129.583 26.9665 130.156 27.0561 130.691 27.2631C131.226 27.4702 131.71 27.7898 132.11 28.2004Z" fill="black"/>
<path d="M144.31 35.6002C144.423 35.3471 144.49 35.0764 144.51 34.8002H147.11C147.027 35.909 146.527 36.9452 145.71 37.7002C145.183 38.2047 144.525 38.5512 143.81 38.7002C143.033 38.9466 142.225 39.0813 141.41 39.1002C140.228 39.1208 139.059 38.8458 138.01 38.3002C137.092 37.7661 136.359 36.9634 135.91 36.0002C135.482 35.0599 135.276 34.0331 135.31 33.0002C135.291 32.4649 135.324 31.9289 135.41 31.4002C135.497 30.9215 135.631 30.4526 135.81 30.0002C136.221 29.0441 136.92 28.24 137.81 27.7002C138.831 27.174 139.962 26.8994 141.11 26.8994C142.258 26.8994 143.39 27.174 144.41 27.7002C145.297 28.1978 145.999 28.9698 146.41 29.9002C146.636 30.4476 146.804 31.0175 146.91 31.6002C146.999 32.2965 147.032 32.9987 147.01 33.7002H137.81C137.81 34.2583 137.948 34.8078 138.21 35.3002C138.433 35.8117 138.82 36.2341 139.31 36.5002C139.898 36.7958 140.553 36.9336 141.21 36.9002L142.61 36.7002C142.971 36.5955 143.31 36.4261 143.61 36.2002C144.01 36.1002 144.11 35.9002 144.31 35.6002ZM138.31 30.7002C138.106 31.03 138.001 31.4122 138.01 31.8002H144.51C144.504 31.3824 144.402 30.9716 144.21 30.6002C143.953 30.1121 143.574 29.6987 143.11 29.4002C142.559 29.1036 141.936 28.9652 141.31 29.0002C140.698 28.9547 140.086 29.0919 139.552 29.3946C139.018 29.6972 138.586 30.1516 138.31 30.7002Z" fill="black"/>
<path d="M158.81 28.2004C159.232 28.6754 159.555 29.2294 159.761 29.8301C159.967 30.4309 160.052 31.0666 160.01 31.7004V38.8004H157.41V32.2004C157.469 31.3886 157.258 30.5802 156.81 29.9004C156.564 29.6523 156.266 29.4611 155.938 29.3402C155.609 29.2193 155.259 29.1716 154.91 29.2004C154.525 29.1873 154.14 29.2514 153.78 29.3887C153.419 29.5261 153.089 29.7341 152.81 30.0004C152.287 30.647 152.036 31.4719 152.11 32.3004V38.8004H149.51V27.3004H152.11V28.6004C152.528 28.0529 153.076 27.6193 153.705 27.3397C154.335 27.0601 155.024 26.9434 155.71 27.0004C156.283 26.9665 156.856 27.0561 157.391 27.2631C157.926 27.4702 158.41 27.7898 158.81 28.2004Z" fill="black"/>
<path d="M164.21 38.0996C163.874 37.701 163.621 37.2389 163.466 36.7408C163.312 36.2427 163.259 35.7186 163.31 35.1996V29.3996H161.51V27.2996H163.31V22.5996H165.91V27.2996H169.21V29.3996H165.91V34.7996C165.847 35.3323 165.99 35.8691 166.31 36.2996C166.495 36.4778 166.715 36.6147 166.956 36.7009C167.198 36.7871 167.455 36.8208 167.71 36.7996L169.11 36.5996V38.7996C168.389 38.9652 167.649 39.0325 166.91 38.9996C166.423 39.0352 165.934 38.9741 165.47 38.8196C165.007 38.6651 164.579 38.4204 164.21 38.0996Z" fill="black"/>
<path d="M181.61 31.9999V38.6999H179.01V37.3999C178.53 37.9518 177.927 38.3839 177.25 38.6616C176.573 38.9394 175.84 39.0552 175.11 38.9999C174.219 39.0078 173.335 38.8378 172.51 38.4999C171.833 38.216 171.294 37.6773 171.01 36.9999C170.815 36.5238 170.713 36.0145 170.71 35.4999C170.691 34.9833 170.794 34.4695 171.01 33.9999C171.193 33.5726 171.467 33.1903 171.812 32.8795C172.157 32.5686 172.566 32.3367 173.01 32.1999C174.178 31.8514 175.392 31.6828 176.61 31.6999H179.01V30.6999C178.99 30.4872 178.922 30.282 178.81 30.0999C178.51 29.2999 177.71 28.9999 176.41 28.9999C175.862 28.9831 175.316 29.0855 174.81 29.2999C174.427 29.4553 174.11 29.7378 173.91 30.0999C173.798 30.353 173.73 30.6237 173.71 30.8999H171.11C171.094 30.3188 171.196 29.7404 171.41 29.1999C172.11 27.6999 173.71 26.8999 176.31 26.8999C177.376 26.8539 178.438 27.0594 179.41 27.4999C180.189 27.8565 180.799 28.502 181.11 29.2999C181.507 30.1418 181.679 31.0718 181.61 31.9999ZM179.01 33.7999H176.81L174.71 33.9999C174.474 34.0287 174.249 34.1173 174.057 34.2573C173.864 34.3973 173.711 34.584 173.61 34.7999C173.477 35.257 173.477 35.7427 173.61 36.1999C173.775 36.5293 174.062 36.7808 174.41 36.8999C174.856 37.0701 175.335 37.1385 175.81 37.0999C176.468 37.1431 177.126 37.0047 177.71 36.6999C178.201 36.4338 178.588 36.0114 178.81 35.4999C178.946 34.9435 179.013 34.3726 179.01 33.7999Z" fill="black"/>
<path d="M183.71 22.5996H186.31V38.7996H183.71V22.5996Z" fill="black"/>
<path d="M94.2103 3C95.0387 3 95.7103 2.32843 95.7103 1.5C95.7103 0.671573 95.0387 0 94.2103 0C93.3818 0 92.7103 0.671573 92.7103 1.5C92.7103 2.32843 93.3818 3 94.2103 3Z" fill="black"/>
<path d="M118.61 25.5C119.439 25.5 120.11 24.8284 120.11 24C120.11 23.1716 119.439 22.5 118.61 22.5C117.782 22.5 117.11 23.1716 117.11 24C117.11 24.8284 117.782 25.5 118.61 25.5Z" fill="black"/>
<path d="M144.51 3C145.339 3 146.01 2.32843 146.01 1.5C146.01 0.671573 145.339 0 144.51 0C143.682 0 143.01 0.671573 143.01 1.5C143.01 2.32843 143.682 3 144.51 3Z" fill="black"/>
</svg>
